<svg xmlns="http://www.w3.org/2000/svg" class="svg-icon" style="width:1em;height:1em;vertical-align:middle;fill:currentColor;overflow:hidden" viewBox="0 0 1024 1024"><path d="M542.293 311.04a42.667 42.667 0 0 0-13.653-8.96 42.667 42.667 0 0 0-16.64-3.413h-4.267a34.987 34.987 0 0 0-11.52 2.56 30.72 30.72 0 0 0-8.106 4.693 42.667 42.667 0 0 0-5.547 3.84l-128 122.027a42.667 42.667 0 0 0 58.88 61.866l55.893-52.48v241.494a42.667 42.667 0 0 0 85.334 0V444.16l55.04 55.467a42.667 42.667 0 0 0 60.586 0 42.667 42.667 0 0 0 0-60.587z"/><path d="M512 85.333A426.667 426.667 0 1 0 938.667 512 426.667 426.667 0 0 0 512 85.333zm0 768A341.333 341.333 0 1 1 853.333 512 341.333 341.333 0 0 1 512 853.333z"/></svg>