<svg xmlns="http://www.w3.org/2000/svg" class="svg-icon" style="width:1em;height:1em;vertical-align:middle;fill:currentColor;overflow:hidden" viewBox="0 0 1024 1024"><path fill="#231F20" d="M428.462 653.271c56.484 0 109.916-19.579 152.74-55.378l22.057 22.057-7.332 7.332a20.48 20.48 0 0 0 0 28.959L765.03 825.324a20.419 20.419 0 0 0 28.96 0l45.219-45.22a20.48 20.48 0 0 0 0-28.959L670.106 582.062a20.46 20.46 0 0 0-28.96 0l-8.928 8.93-21.975-21.976a236.646 236.646 0 0 0 56.873-154.357c0-63.734-24.822-123.659-69.899-168.735s-105-69.898-168.734-69.898-123.659 24.821-168.715 69.898a237.036 237.036 0 0 0-69.898 168.735c0 63.733 24.822 123.658 69.898 168.714a236.81 236.81 0 0 0 168.694 69.898zM795.75 765.645l-16.26 16.24-140.145-140.124 16.26-16.24L795.75 765.645zM288.707 274.903c37.335-37.335 86.958-57.897 139.755-57.897s102.441 20.562 139.776 57.897a196.403 196.403 0 0 1 57.897 139.776 196.342 196.342 0 0 1-57.897 139.756c-37.335 37.335-86.978 57.897-139.776 57.897s-102.42-20.562-139.755-57.897a196.383 196.383 0 0 1-57.897-139.756 196.26 196.26 0 0 1 57.897-139.776z"/></svg>